<?xml version="1.0" encoding="utf-8"?>
<!-- Generator: Adobe Illustrator 24.1.1, SVG Export Plug-In . SVG Version: 6.00 Build 0)  -->
<svg version="1.1" id="Слой_1" xmlns="http://www.w3.org/2000/svg" xmlns:xlink="http://www.w3.org/1999/xlink" x="0px" y="0px"
	 viewBox="0 0 70 70" style="enable-background:new 0 0 70 70;" xml:space="preserve">
<path d="M33.2,0.9C33.1,9.4,33,17.8,33,26.3c-8.5,2.8-17,5.7-25.5,8.5c8.2,2.9,16.4,5.7,24.7,8.6C32,52,31.9,60.5,31.9,69.1
	c4.9-6.2,9.9-12.4,14.8-18.7c0-1.7,0-3.3,0-5c-2,2.3-3.9,4.5-5.9,6.8c0-5,0.1-10,0.1-15c-4.4-1.5-8.9-2.9-13.3-4.4
	c4.6-1.7,9.2-3.4,13.9-5.2c0-5.4,0-10.9,0-16.3C38.7,7.9,35.9,4.4,33.2,0.9z"/>
</svg>
